<?xml version="1.0" encoding="UTF-8" standalone="no"?>
<!-- Generator: Adobe Illustrator 24.0.1, SVG Export Plug-In . SVG Version: 6.00 Build 0)  -->

<svg
   xmlns:dc="http://purl.org/dc/elements/1.1/"
   xmlns:cc="http://creativecommons.org/ns#"
   xmlns:rdf="http://www.w3.org/1999/02/22-rdf-syntax-ns#"
   xmlns:svg="http://www.w3.org/2000/svg"
   xmlns="http://www.w3.org/2000/svg"
   xmlns:sodipodi="http://sodipodi.sourceforge.net/DTD/sodipodi-0.dtd"
   xmlns:inkscape="http://www.inkscape.org/namespaces/inkscape"
   version="1.1"
   id="Calque_1"
   x="0px"
   y="0px"
   viewBox="0 0 854 854"
   style="enable-background:new 0 0 854 854;"
   xml:space="preserve"
   sodipodi:docname="logo.svg"
   inkscape:version="0.92.4 (5da689c313, 2019-01-14)"><metadata
   id="metadata74"><rdf:RDF><cc:Work
       rdf:about=""><dc:format>image/svg+xml</dc:format><dc:type
         rdf:resource="http://purl.org/dc/dcmitype/StillImage" /></cc:Work></rdf:RDF></metadata><defs
   id="defs72" /><sodipodi:namedview
   pagecolor="#ffffff"
   bordercolor="#666666"
   borderopacity="1"
   objecttolerance="10"
   gridtolerance="10"
   guidetolerance="10"
   inkscape:pageopacity="0"
   inkscape:pageshadow="2"
   inkscape:window-width="1920"
   inkscape:window-height="1017"
   id="namedview70"
   showgrid="false"
   inkscape:zoom="0.78162623"
   inkscape:cx="277.27904"
   inkscape:cy="480.44725"
   inkscape:window-x="-8"
   inkscape:window-y="-8"
   inkscape:window-maximized="1"
   inkscape:current-layer="Calque_1" />
<style
   type="text/css"
   id="style2">
	.st0{fill:#00A8F3;}
	.st1{fill:#0ED145;}
	.st2{fill:#FFFFFF;}
</style>
<g
   id="_x23_ffffffff">
</g>
<g
   id="_x23_00a8f3ff"
   transform="matrix(1.4984373,0,0,1.4984432,-211.35113,-212.79944)">
	<path
   class="st0"
   d="m 409.46,143.59 c 47.08,-2.61 94.92,6.05 137.55,26.4 63.75,29.98 115.76,84.4 142.33,149.69 27.4,66.14 28.05,142.85 1.91,209.48 -23.16,59.83 -67.43,111.06 -122.89,143.22 -34.27,19.96 -72.83,32.52 -112.29,36.57 -27.21,2.62 -54.81,1.77 -81.68,-3.36 C 336.95,698.61 301.01,683.83 269.42,662.57 215.35,626.3 173.98,571.24 155.23,508.8 138.3,453.07 139.11,392.04 157.79,336.85 c 20.55,-61.86 63.53,-115.73 118.65,-150.38 39.8,-25.19 86.03,-39.94 133.02,-42.88 m -6.52,78.62 c -32.72,3.86 -64.59,15.44 -91.82,34.06 1.56,1.95 3.22,3.84 5.06,5.55 9.69,9.22 18.64,19.23 28.57,28.2 6.17,7.13 13,13.72 19.97,20.06 7.43,7.86 15.07,15.55 22.98,22.92 3.56,4.51 7.91,8.28 11.91,12.39 9.06,8.79 17.58,18.15 26.98,26.58 4.94,5.28 10.03,10.43 15.4,15.27 4.65,5.9 10.49,10.7 15.62,16.15 16.33,16.34 32.66,32.67 48.99,49 4.71,4.53 9.01,9.48 14.06,13.64 4.74,5.35 10.12,10.07 15.03,15.26 2.68,2.6 5.01,5.66 8.24,7.62 3.05,4.58 7.43,8.01 11.17,11.99 2.57,2.74 5.29,5.35 8.22,7.72 11.03,11.46 22.25,22.79 33.75,33.79 8.17,-10.9 14.2,-23.27 19.62,-35.72 18.42,-43.85 21.06,-94.07 7.21,-139.57 -9.21,-30.92 -25.93,-59.51 -48.13,-82.88 -23.55,-24.5 -53.22,-43.1 -85.61,-53.41 -28.01,-9.14 -57.97,-11.75 -87.22,-8.62 m -146.69,88.93 c -16.15,23.64 -27.1,50.81 -32.11,78.99 -8.08,44.55 -1.01,91.68 19.87,131.86 15.7,30.28 38.95,56.7 67.4,75.59 28.07,18.93 60.87,30.74 94.56,34.06 41.58,4.32 84.4,-4.44 120.95,-24.74 5.28,-3.05 10.76,-5.87 15.47,-9.8 -11.04,-11.46 -22.33,-22.72 -33.77,-33.77 -3.56,-4.41 -7.95,-8.02 -11.76,-12.2 -2.42,-2.64 -5,-5.18 -8.06,-7.07 -2.58,-3.95 -6.29,-6.96 -9.53,-10.33 -4.49,-4.26 -8.49,-9.03 -13.33,-12.9 -4.8,-5.4 -9.69,-10.76 -15.23,-15.42 -1.69,-1.73 -3.43,-3.41 -5.22,-5.01 -6.13,-7.2 -12.93,-13.86 -20.04,-20.07 -4.3,-4.95 -8.93,-9.62 -13.85,-13.95 -8.77,-9.69 -18.36,-18.58 -27.48,-27.93 l -0.32,0.78 c -2.92,-4.65 -7.32,-8.04 -11.01,-12.03 -2.07,-2.27 -4.41,-4.28 -6.99,-5.95 l 0.76,-0.33 c -4.83,-5.33 -10.3,-10.01 -15.3,-15.17 -6.05,-6.06 -11.68,-12.58 -18.41,-17.91 -3.11,-4.09 -7.02,-7.45 -10.59,-11.1 -4.14,-3.92 -7.77,-8.39 -12.3,-11.86 -5.99,-7.3 -13.09,-13.64 -19.98,-20.08 -2.62,-3.29 -5.75,-6.1 -8.72,-9.05 -8.4,-8.14 -16.26,-16.85 -25.01,-24.61 z"
   id="path5"
   inkscape:connector-curvature="0"
   style="fill:#00a8f3" />
</g>
<g
   id="_x23_0ed145ff"
   transform="matrix(1.4984373,0,0,1.4984432,-211.35113,-212.79944)">
	<path
   class="st1"
   d="m 416.08,282.99 c -3.11,-6.8 2.57,-15.25 9.92,-15.4 7.04,-0.74 13.64,6.31 12.06,13.29 -1.65,6.2 -6.25,11.18 -7.59,17.51 -2.24,8.99 -0.03,19.07 5.72,26.3 3.02,1.91 7.03,2.17 10.53,1.8 3.87,-2.66 5.83,-7.4 6.84,-11.84 1.35,-5.96 -1.22,-11.75 -1.64,-17.63 -0.21,-5 5.16,-8.71 9.84,-7.77 5.28,0.67 8.74,7.13 6.23,11.84 -2.47,4.05 -6.51,6.94 -8.69,11.21 -2.67,5.12 -3.62,11.48 -1.56,16.96 2.81,2.19 6.31,3.34 9.73,4.22 2.75,0.72 5.22,-1.17 7.43,-2.53 7.43,-4.91 12.87,-13 13.82,-21.94 0.65,-4.71 0.01,-9.55 1.19,-14.19 2.05,-6.78 11.23,-9.74 16.99,-5.7 5.3,3.25 6.82,11.04 3.34,16.13 -2.86,3.65 -7.37,5.33 -11.04,7.99 -7.35,4.87 -12.27,13.03 -13.27,21.78 -0.31,3.64 -1.34,8.42 2.24,10.84 5.68,4.6 11.36,9.3 15.88,15.09 2.03,2.24 3.56,5.14 6.28,6.61 9.96,1.48 20.72,-2.2 27.38,-9.86 3.47,-3.71 5.37,-8.54 8.55,-12.47 3.9,-4.82 11.89,-4.96 16.31,-0.78 4.89,4.33 4.84,12.74 -0.09,17.02 -3.89,3.68 -9.65,2.69 -14.52,3.04 -12.19,0.09 -23.96,8.28 -28.17,19.68 0.7,5.15 3.27,9.84 4.86,14.75 6.03,-0.39 10.76,-4.37 14.92,-8.37 2.5,-2.54 6.21,-4.36 9.77,-2.91 5.94,1.8 7.6,10.54 2.82,14.45 -3.55,3.3 -8.61,1.38 -12.76,0.68 -4.39,-1.08 -8.94,-0.8 -13.26,0.4 0.7,4.85 0.34,10.36 3.11,14.57 8.94,6.6 21.68,8.32 31.74,3.24 4.07,-1.84 7.7,-4.82 12.17,-5.65 6.63,-1.13 13.2,4.94 12.83,11.61 0.15,6.61 -6.39,12.42 -12.95,11.24 -5.06,-1.09 -9.1,-4.62 -13.89,-6.4 -9.21,-3.83 -20.05,-2.34 -28.39,2.89 -0.98,0.7 -2.17,1.4 -2.47,2.65 -1.43,4.78 -1.91,9.78 -2.83,14.67 6.5,2.43 13.34,0.98 19.87,-0.43 5.04,-1.29 10.02,3.39 9.76,8.42 0.16,5.4 -5.78,9.76 -10.88,8.02 -3.39,-1.44 -5.74,-4.43 -8.58,-6.66 -3.15,-2.81 -7.15,-4.33 -11.21,-5.24 -1.39,3.25 -2.65,6.55 -3.76,9.91 -5.05,-4.16 -9.35,-9.11 -14.06,-13.64 -16.33,-16.33 -32.66,-32.66 -48.99,-49 -5.13,-5.45 -10.97,-10.25 -15.62,-16.15 3.95,-1.05 8.25,-1.98 11.16,-5.09 6.14,-5.93 5.72,-17 -0.86,-22.44 -6.31,-5.67 -17.27,-4.56 -22.25,2.32 -2.18,2.86 -2.7,6.52 -3.45,9.94 -9.4,-8.43 -17.92,-17.79 -26.98,-26.58 -4,-4.11 -8.35,-7.88 -11.91,-12.39 7.36,-3.13 15.08,-5.37 23.02,-6.41 2.67,-0.6 6.13,-0.5 7.72,-3.17 3.95,-5.93 6.03,-13.21 5.37,-20.34 -0.36,-7.41 -4.76,-13.57 -7.73,-20.09 m 64.33,105.38 c -2.91,0.6 -3.7,4.92 -1.27,6.58 2.25,1.89 6.08,0.04 5.85,-2.95 0.25,-2.47 -2.26,-4.42 -4.58,-3.63 m 21.04,20.11 c -5.18,0.83 -7.26,8.04 -3.56,11.63 3.36,3.55 10.1,2.14 11.53,-2.62 1.78,-4.79 -2.95,-10.35 -7.97,-9.01 z"
   id="path8"
   inkscape:connector-curvature="0"
   style="fill:#0ed145" />
	<path
   class="st1"
   d="m 344.75,290.02 c 4.48,-2.51 10.39,-4.18 14.81,-0.59 6.75,4.61 4.33,13.73 5.16,20.65 -6.97,-6.34 -13.8,-12.93 -19.97,-20.06 z"
   id="path10"
   inkscape:connector-curvature="0"
   style="fill:#0ed145" />
	<path
   class="st1"
   d="m 289.98,344.8 c 6.89,6.44 13.99,12.78 19.98,20.08 -4.61,-0.59 -9.3,-0.16 -13.89,-0.91 -4.51,-0.75 -7.96,-4.86 -8.69,-9.26 -0.59,-3.53 1.22,-6.8 2.6,-9.91 z"
   id="path12"
   inkscape:connector-curvature="0"
   style="fill:#0ed145" />
	<path
   class="st1"
   d="m 298.56,395.03 c 0.4,-5.2 6.35,-8.86 11.16,-6.89 3.72,1.78 6.21,5.24 9.53,7.6 2.69,2.18 6.07,3.13 9.37,3.98 1.42,-3.96 2.83,-7.92 4.23,-11.88 6.73,5.33 12.36,11.85 18.41,17.91 5,5.16 10.47,9.84 15.3,15.17 l -0.76,0.33 c -3.88,1.65 -8.14,3.37 -10.4,7.17 -4.36,6.66 -2.61,16.6 4.15,21 5.37,3.8 13.15,3.55 18.26,-0.59 3.15,-2.32 4.54,-6.12 5.99,-9.6 l 0.32,-0.78 c 9.12,9.35 18.71,18.24 27.48,27.93 -1.99,2.22 -4.5,4.49 -4.57,7.71 -0.63,5.28 3.66,10.56 9.05,10.66 3.77,0.53 6.76,-2.11 9.37,-4.42 7.11,6.21 13.91,12.87 20.04,20.07 -1.59,1.96 -3.7,4.37 -1.77,6.91 2.55,2.24 5.07,-0.12 6.99,-1.9 5.54,4.66 10.43,10.02 15.23,15.42 -7.21,2.46 -14.44,5.07 -22.04,6.01 -2.99,0.71 -6.99,0.25 -8.78,3.28 -5.48,8.23 -7.23,19.09 -3.62,28.43 1.66,4.75 5.06,8.72 6.47,13.57 1.79,6.43 -3.47,13.48 -10.07,13.85 -6.35,0.84 -12.62,-4.62 -12.68,-11.01 -0.03,-5 3.44,-8.96 5.42,-13.29 5.38,-10.37 3.93,-23.91 -3.43,-32.92 -4.63,-1.95 -9.83,-1.85 -14.63,-3.23 -6.37,-1.15 -12.08,-4.59 -18.39,-5.73 -4.74,1.43 -8.62,4.91 -12,8.42 -6.5,6.9 -8.2,16.68 -7.89,25.84 0.45,6.04 -4.23,11.77 -10.33,12.19 -7.65,0.96 -14.68,-7.14 -12.24,-14.56 1.83,-6.49 9.01,-8.42 13.79,-12.18 9.02,-6.49 13.68,-18.25 12.01,-29.15 -2.14,-3.75 -6.22,-5.76 -9.59,-8.22 -4.25,1.65 -8.26,4.12 -10.96,7.87 -3.36,4.28 -3.89,9.91 -6.39,14.62 -2.22,3.98 -7.96,4.85 -11.63,2.41 -4.64,-2.8 -5.17,-10.52 -0.65,-13.67 3.09,-1.97 6.79,-2.57 10.14,-3.95 5.24,-1.93 9.72,-5.96 11.98,-11.08 2.03,-3.77 -2.04,-6.91 -4.05,-9.66 -2.73,-4.12 -8.12,-3.13 -12.29,-2.6 -8.42,1.18 -16.15,6.08 -20.87,13.13 -2.65,3.67 -4.33,8.17 -7.96,11.04 -5.5,3.96 -14.08,1.58 -16.86,-4.57 -3.18,-5.98 0.4,-14.37 7.03,-15.95 5.29,-0.98 10.75,-0.21 16.03,-1.37 9.44,-1.89 17.56,-8.66 21.65,-17.3 1.37,-2.64 -0.38,-5.44 -1.17,-7.96 -2.76,-6.61 -4.52,-13.58 -5.47,-20.67 -0.57,-2.45 -0.45,-5.6 -2.84,-7.1 -8.14,-5.5 -18.93,-7.44 -28.25,-3.9 -5.05,1.74 -9.28,5.34 -14.49,6.66 -6.63,1.49 -13.57,-4.29 -13.34,-11.07 -0.42,-6.84 6.41,-12.96 13.16,-11.59 4.91,1.14 8.84,4.59 13.53,6.31 9.06,3.75 19.68,2.51 28.01,-2.49 5.39,-2.96 4.15,-10.2 5.33,-15.34 -6.49,-2.44 -13.26,-0.65 -19.77,0.6 -5.31,1.14 -10.13,-4.35 -9.25,-9.47 m 78.94,86.64 c 1.54,1.36 3.62,0.41 5.4,0.24 0.69,-2.38 1.03,-6.18 -2.28,-6.59 -3.56,-1.21 -6.24,4.41 -3.12,6.35 z"
   id="path14"
   inkscape:connector-curvature="0"
   style="fill:#0ed145" />
	<path
   class="st1"
   d="m 543.93,488.91 c 4.55,0.35 9.16,-0.06 13.67,0.72 5.48,1.03 9.23,6.92 8.55,12.33 -0.43,2.4 -1.72,4.52 -2.83,6.66 -2.93,-2.37 -5.65,-4.98 -8.22,-7.72 -3.74,-3.98 -8.12,-7.41 -11.17,-11.99 z"
   id="path16"
   inkscape:connector-curvature="0"
   style="fill:#0ed145" />
	<path
   class="st1"
   d="m 488.8,544.06 c 3.06,1.89 5.64,4.43 8.06,7.07 3.81,4.18 8.2,7.79 11.76,12.2 -4.49,3.14 -10.93,4.29 -15.31,0.33 -5.88,-4.75 -3.63,-13.07 -4.51,-19.6 z"
   id="path18"
   inkscape:connector-curvature="0"
   style="fill:#0ed145" />
</g>
<g
   id="g43"
   transform="matrix(1.4984373,0,0,1.4984432,-211.35113,-212.79944)">
	<g
   id="g41">
		<path
   class="st2"
   d="m 236.38,304.09 c -0.8,3.17 -3.25,8.8 -7.22,15.62 -9.12,15.57 -22.16,25.97 -36.62,20.31 -13.71,-5.23 -16.68,-25.79 -4.12,-47.09 5.01,-8.42 9.5,-12.68 11.65,-14.35 0.91,1.61 1.83,3.2 2.76,4.79 -2.98,2.42 -6.59,6.41 -9.86,11.92 -9.3,15.72 -7.83,30.33 3.46,35.29 10.61,4.75 21.13,-1.25 29.23,-15 2.65,-4.49 4.84,-9.3 5.77,-12.8 1.66,0.42 3.31,0.86 4.95,1.31 z"
   id="path21"
   inkscape:connector-curvature="0"
   style="fill:#ffffff" />
		<path
   class="st2"
   d="m 264.38,240.17 c 10.15,12.79 5.89,27.21 -4.61,38.47 -10.89,11.6 -25.35,15.56 -37.03,7.22 -12.2,-8.64 -11.44,-27.03 2.35,-41.65 14.15,-14.86 30.61,-14.96 39.29,-4.04 z m -35.98,37.97 c 8,6.25 19.5,5.88 28.08,-3.28 8.68,-9.17 8.25,-20.39 1.2,-28.57 -6.1,-7.06 -18.34,-9.8 -29.27,1.67 -10.76,11.53 -8.15,23.86 -0.01,30.18 z"
   id="path23"
   inkscape:connector-curvature="0"
   style="fill:#ffffff" />
		<path
   class="st2"
   d="m 259.51,215.3 c 3.36,-3.33 8.62,-7.53 13.95,-11 8.27,-5.38 14.43,-7.45 19.54,-7.23 4.13,0.14 7.35,2.11 9.06,5.34 2.9,5.54 0,11.68 -4.99,16.58 0.04,0.06 0.07,0.12 0.11,0.18 4.96,-1.44 9.2,0.11 12.84,3.73 4.94,4.84 8.29,8.24 10.22,9.3 -2.33,1.19 -4.63,2.42 -6.92,3.7 -1.49,-0.69 -4.64,-3.6 -9.13,-7.81 -4.87,-4.7 -9.15,-5.12 -15.62,-1.18 -2.19,1.43 -4.36,2.9 -6.51,4.4 3.93,5.59 7.86,11.19 11.79,16.78 -2.1,1.47 -4.17,2.97 -6.22,4.52 -9.38,-12.45 -18.75,-24.88 -28.12,-37.31 z m 19.88,12.21 c 2.38,-1.66 4.78,-3.28 7.2,-4.86 7.57,-4.9 10.81,-10.73 8.15,-15.46 -2.99,-5.3 -10.05,-4.49 -18.16,0.7 -3.67,2.39 -6.08,4.42 -7.12,5.48 3.31,4.72 6.62,9.43 9.93,14.14 z"
   id="path25"
   inkscape:connector-curvature="0"
   style="fill:#ffffff" />
		<path
   class="st2"
   d="m 369.63,188.99 c 3.37,15.93 -6.53,26.76 -20.3,31.6 -14.25,4.96 -28.19,1.25 -34.75,-11.53 -6.87,-13.3 1.3,-28.55 19.33,-34.77 18.44,-6.28 32.85,1.07 35.72,14.7 z m -47.03,16.22 c 4.27,9.21 14.25,14.47 25.48,10.55 11.33,-3.89 15.76,-14.01 13.12,-24.45 -2.28,-9.04 -11.77,-17.04 -26.01,-12.19 -14.1,4.95 -16.93,16.73 -12.59,26.09 z"
   id="path27"
   inkscape:connector-curvature="0"
   style="fill:#ffffff" />
		<path
   class="st2"
   d="m 384.56,210.56 c -2.87,-15.47 -5.74,-30.94 -8.62,-46.42 3.23,-0.58 6.47,-1.11 9.72,-1.58 8.56,6.81 16.52,14 23.86,21.49 5.09,5.21 8.82,10.07 11.78,14.83 0.06,-0.02 0.12,-0.05 0.18,-0.07 -0.85,-6.28 -1.19,-12.02 -1.38,-19.37 -0.17,-6.58 -0.33,-13.16 -0.5,-19.74 2.83,-0.07 5.66,-0.1 8.49,-0.08 -0.09,15.73 -0.17,31.46 -0.26,47.18 -2.52,-0.01 -5.04,0.01 -7.56,0.08 -6.35,-7.82 -13.32,-15.38 -20.91,-22.61 -4.99,-4.76 -10.11,-9.52 -14.29,-14.06 -0.1,0.04 -0.19,0.08 -0.29,0.11 1.42,5.81 2.47,11.38 3.66,19.14 1.02,6.64 2.05,13.29 3.07,19.93 -2.32,0.37 -4.64,0.76 -6.95,1.17 z"
   id="path29"
   inkscape:connector-curvature="0"
   style="fill:#ffffff" />
		<path
   class="st2"
   d="m 451.74,193.23 c -2.63,4.71 -5.14,9.46 -7.52,14.24 -2.57,-0.19 -5.15,-0.34 -7.72,-0.45 7.23,-15.44 15.8,-30.55 25.66,-45.18 3.6,0.45 7.19,0.97 10.77,1.56 5.21,16.8 9.04,33.71 11.5,50.57 -2.59,-0.65 -5.19,-1.26 -7.8,-1.83 -0.94,-5.27 -2.02,-10.54 -3.24,-15.81 -7.17,-1.34 -14.4,-2.38 -21.65,-3.1 z m 20.9,-1.87 c -1.19,-4.82 -2.49,-9.63 -3.9,-14.44 -0.97,-3.27 -1.54,-6.19 -2.14,-9.03 -0.07,-0.01 -0.13,-0.02 -0.2,-0.03 -1.42,2.63 -2.91,5.32 -4.57,8 -2.76,4.23 -5.4,8.5 -7.94,12.81 6.28,0.66 12.54,1.56 18.75,2.69 z"
   id="path31"
   inkscape:connector-curvature="0"
   style="fill:#ffffff" />
		<path
   class="st2"
   d="m 493.76,208.8 c 2.87,2.57 7.23,5.37 12.2,7.12 7.36,2.59 12.85,1.39 14.74,-3.01 1.7,-4.05 -0.33,-7.75 -7.59,-12.98 -8.85,-6.04 -14.11,-11.55 -12.28,-17.97 1.95,-7.05 12.26,-10.03 25.2,-5.23 6.76,2.53 11.14,5.64 13.5,7.98 -1.44,1.18 -2.87,2.37 -4.28,3.57 -1.72,-1.65 -5.43,-4.75 -11.31,-6.94 -8.9,-3.27 -13.54,-0.56 -14.51,2.48 -1.38,4.23 1.86,7.41 9.37,12.9 9.2,6.79 12.48,12.71 9.57,18.97 -3.15,6.66 -11.8,9.35 -24.61,4.82 -5.28,-1.85 -10.72,-4.87 -13.3,-7.31 1.09,-1.48 2.19,-2.95 3.3,-4.4 z"
   id="path33"
   inkscape:connector-curvature="0"
   style="fill:#ffffff" />
		<path
   class="st2"
   d="m 562.05,194.1 c -3.21,5.76 -6.43,11.53 -9.64,17.29 9.3,5.12 18.32,10.86 27,17.21 3.9,-5.32 7.81,-10.65 11.71,-15.97 2.52,1.85 5.02,3.74 7.49,5.68 -9.76,12.4 -19.51,24.8 -29.27,37.2 -2.05,-1.61 -4.12,-3.18 -6.21,-4.72 4.37,-5.96 8.75,-11.93 13.12,-17.89 -8.5,-6.22 -17.34,-11.84 -26.44,-16.86 -3.6,6.46 -7.2,12.91 -10.81,19.37 -2.22,-1.22 -4.45,-2.4 -6.7,-3.55 7.22,-14.02 14.45,-28.03 21.67,-42.05 2.72,1.4 5.41,2.82 8.08,4.29 z"
   id="path35"
   inkscape:connector-curvature="0"
   style="fill:#ffffff" />
		<path
   class="st2"
   d="m 634.29,289.71 c -13.46,9.17 -27.91,3.12 -38.31,-8.27 -10.72,-11.83 -13.04,-26.18 -3.87,-37.28 9.52,-11.54 27.08,-9.94 40.6,5.06 13.74,15.41 13.11,32.68 1.58,40.49 z m -35.25,-39.52 c -6.79,7.57 -7.54,18.91 0.92,28.23 8.48,9.45 19.87,10.19 28.51,3.73 7.49,-5.55 10.87,-17.98 0.26,-29.89 -10.64,-11.67 -22.78,-9.73 -29.69,-2.07 z"
   id="path37"
   inkscape:connector-curvature="0"
   style="fill:#ffffff" />
		<path
   class="st2"
   d="m 659.82,287.42 c 2.98,3.83 6.65,9.07 10.56,16.35 4.8,8.96 6.71,16.53 6.34,21.91 -0.26,4.97 -2.45,8.71 -6.33,10.3 -3.95,1.63 -7.84,0.99 -11.59,-1.48 -5.19,-3.31 -10.16,-9.86 -14.43,-17.73 -1.31,-2.41 -2.48,-4.64 -3.23,-6.63 -5.43,3.21 -10.86,6.42 -16.28,9.63 -1.41,-2.43 -2.85,-4.82 -4.33,-7.16 13.09,-8.4 26.19,-16.8 39.29,-25.19 z m -14.4,20.2 c 0.72,1.93 1.86,4.23 3.35,6.98 5.34,9.9 11.4,14.96 17.36,12.27 5.67,-2.53 5.39,-10.71 0.12,-20.58 -2.08,-3.89 -3.93,-6.67 -5.03,-8.01 -5.27,3.11 -10.53,6.22 -15.8,9.34 z"
   id="path39"
   inkscape:connector-curvature="0"
   style="fill:#ffffff" />
	</g>
</g>
<g
   id="g67"
   transform="matrix(1.4984373,0,0,1.4984432,-211.35113,-212.79944)">
	<g
   id="g65">
		<path
   class="st2"
   d="m 650.74,568.23 c 3.17,-2.55 7.13,-7.26 10.22,-12.49 9.6,-16.36 7.24,-30.07 -3.25,-34.68 -11.37,-5.06 -22.04,1.93 -29.87,15.13 -2.81,4.72 -4.59,9 -5.46,12.3 -1.75,-0.37 -3.49,-0.76 -5.23,-1.16 0.54,-2.3 2.34,-7.11 6.46,-14.04 10.09,-16.99 24.54,-26.93 38.38,-21.53 14.38,5.55 15.72,25.4 4.41,44.82 -4.83,8.29 -9.86,13.74 -12.82,16.09 -0.94,-1.49 -1.88,-2.97 -2.84,-4.44 z"
   id="path45"
   inkscape:connector-curvature="0"
   style="fill:#ffffff" />
		<path
   class="st2"
   d="m 593.36,573.49 c 11.05,-11.65 26.07,-16.11 38.33,-7.38 11.62,8.23 11.3,25.82 -2.27,40.35 -13.13,14.02 -30.57,16.81 -40.67,4.08 -8.79,-11.07 -6.7,-25.13 4.61,-37.05 z m 3.86,3.17 c -9.14,9.61 -7.6,21.01 -1.41,28.19 6.98,8.08 19.25,9.51 29.63,-1.43 10.23,-10.96 8.3,-23.6 0.36,-29.75 -8.23,-6.44 -19.58,-6.65 -28.58,2.99 z"
   id="path47"
   inkscape:connector-curvature="0"
   style="fill:#ffffff" />
		<path
   class="st2"
   d="m 594.62,636.66 c -2.47,1.86 -4.97,3.68 -7.5,5.44 -3.93,-5.59 -7.86,-11.19 -11.79,-16.78 -2.2,1.54 -4.43,3.05 -6.68,4.51 -6.38,4.38 -8.15,8.19 -6.6,14.86 1.32,6.05 1.95,10.37 1.6,12.09 -2.76,1.54 -5.54,3.02 -8.34,4.45 0.46,-2.29 -0.16,-7.1 -1.37,-13.94 -0.93,-5.08 0.09,-9.45 3.78,-13.08 -0.04,-0.06 -0.07,-0.12 -0.11,-0.18 -6.81,2.05 -13.49,0.82 -16.39,-4.71 -1.71,-3.23 -1.69,-6.87 -0.08,-10.15 1.96,-4.14 5.9,-7.7 12.73,-12.15 4.41,-2.87 9.13,-5.81 12.63,-7.67 9.39,12.45 18.75,24.88 28.12,37.31 z m -31.88,-29.25 c -1.2,0.49 -3.57,1.8 -6.72,3.86 -6.84,4.53 -10.43,9.53 -7.42,14.86 2.64,4.69 9.38,5.11 16.95,0.22 2.4,-1.56 4.77,-3.16 7.12,-4.8 -3.31,-4.72 -6.62,-9.43 -9.93,-14.14 z"
   id="path49"
   inkscape:connector-curvature="0"
   style="fill:#ffffff" />
		<path
   class="st2"
   d="m 503.6,631.15 c 14.42,-4.94 29.05,-1.39 35.93,12.01 6.53,12.67 -0.92,27.44 -18.71,33.68 -17.19,6.01 -33.59,0.56 -36.92,-15.32 -2.92,-13.78 4.95,-25.31 19.7,-30.37 z m 1.99,4.58 c -11.91,4.07 -15.46,14.85 -13.14,24.01 2.61,10.34 12.67,17.2 26.22,12.57 13.42,-4.7 16.96,-16.43 12.72,-25.55 -4.39,-9.47 -13.99,-15.17 -25.8,-11.03 z"
   id="path51"
   inkscape:connector-curvature="0"
   style="fill:#ffffff" />
		<path
   class="st2"
   d="m 469.43,688.7 c -1.02,-6.64 -2.05,-13.29 -3.07,-19.93 -1.19,-7.75 -1.87,-13.39 -2.35,-19.33 -0.09,-0.01 -0.18,-0.02 -0.27,-0.03 -2.19,5.5 -5.54,11.4 -9.41,17.08 -5.86,8.64 -12.38,17.08 -19.54,25.25 -3.04,0.08 -6.07,0.11 -9.11,0.1 0.09,-15.73 0.17,-31.46 0.26,-47.18 2.35,0.01 4.7,-0.01 7.04,-0.07 0.17,6.58 0.33,13.16 0.5,19.74 0.18,7.35 0.15,13.09 -0.52,19.41 0.07,0.02 0.13,0.04 0.2,0.07 3.11,-4.9 6.76,-10 11.12,-15.83 6.28,-8.38 11.9,-16.99 16.86,-25.75 2.7,-0.39 5.38,-0.83 8.07,-1.31 2.87,15.47 5.74,30.94 8.62,46.42 -2.8,0.48 -5.6,0.94 -8.4,1.36 z"
   id="path53"
   inkscape:connector-curvature="0"
   style="fill:#ffffff" />
		<path
   class="st2"
   d="m 377.02,672.31 c -3.26,4.42 -6.65,8.79 -10.16,13.1 -3.14,-0.68 -6.28,-1.41 -9.4,-2.2 11.67,-13.29 22.1,-27.25 31.24,-41.69 2.97,0.49 5.95,0.92 8.94,1.29 4.49,16.42 10.36,32.73 17.58,48.78 -3.1,-0.13 -6.21,-0.31 -9.3,-0.54 -2.03,-5.11 -3.93,-10.25 -5.7,-15.39 -7.77,-0.79 -15.51,-1.9 -23.2,-3.35 z m 21.97,-1.58 c -1.61,-4.75 -3.1,-9.51 -4.48,-14.28 -0.79,-3 -1.36,-5.98 -1.82,-8.87 -0.06,-0.01 -0.12,-0.02 -0.17,-0.03 -1.27,2.58 -2.58,5.21 -4.42,8.04 -2.71,4.16 -5.52,8.28 -8.44,12.35 6.39,1.18 12.85,2.1 19.33,2.79 z"
   id="path55"
   inkscape:connector-curvature="0"
   style="fill:#ffffff" />
		<path
   class="st2"
   d="m 351.59,679.25 c -4.03,0.64 -11.53,-0.2 -17.94,-2.45 -15.77,-5.59 -20.34,-15 -17.24,-21.51 2.93,-6.34 9.66,-7.35 20.8,-6.43 9.11,0.69 13.38,-0.36 14.75,-4.53 0.99,-3.1 -0.79,-7.6 -8.36,-10.38 -5.03,-1.87 -9.23,-2.13 -11.38,-2.14 0.01,-1.8 0.03,-3.6 0.07,-5.4 2.89,-0.04 7.3,0.64 12.86,2.73 10.49,3.91 16.21,11.04 14.24,18.16 -1.82,6.37 -9.08,8.62 -19.99,7.66 -9.06,-0.66 -13.31,0.19 -15.03,4.29 -1.87,4.36 1.76,9.54 10.4,12.59 5.81,2.04 11.83,2.42 16.09,1.89 0.22,1.84 0.47,3.68 0.73,5.52 z"
   id="path57"
   inkscape:connector-curvature="0"
   style="fill:#ffffff" />
		<path
   class="st2"
   d="m 321.45,619.59 c -7.22,14.02 -14.45,28.03 -21.67,42.05 -2.71,-1.38 -5.41,-2.8 -8.08,-4.27 3.6,-6.46 7.2,-12.92 10.81,-19.37 -9.21,-5.08 -18.15,-10.76 -26.75,-17.05 -4.37,5.96 -8.75,11.93 -13.12,17.89 -2.52,-1.85 -5.02,-3.74 -7.49,-5.68 9.76,-12.4 19.51,-24.8 29.27,-37.2 2.05,1.61 4.12,3.18 6.21,4.72 -3.9,5.32 -7.81,10.65 -11.71,15.97 8.42,6.16 17.17,11.73 26.19,16.7 3.21,-5.76 6.43,-11.53 9.64,-17.29 2.22,1.2 4.45,2.38 6.7,3.53 z"
   id="path59"
   inkscape:connector-curvature="0"
   style="fill:#ffffff" />
		<path
   class="st2"
   d="m 257.16,569.34 c 10.78,12.03 13.54,26.96 3.93,38.59 -9.08,10.98 -25.89,9.86 -39.31,-4.88 -12.95,-14.26 -14.96,-32.76 -1.52,-41.87 11.64,-7.95 25.87,-4.15 36.9,8.16 z m -3.43,3.63 c -8.89,-9.95 -20.53,-9.59 -28.11,-3.92 -8.56,6.36 -10.63,18.92 -0.52,30.23 10.12,11.12 22.51,9.87 29.23,2.4 6.99,-7.78 8.3,-18.92 -0.6,-28.71 z"
   id="path61"
   inkscape:connector-curvature="0"
   style="fill:#ffffff" />
		<path
   class="st2"
   d="m 193.47,564.35 c -1.78,-2.83 -3.52,-5.71 -5.21,-8.63 5.43,-3.21 10.86,-6.42 16.28,-9.62 -1.39,-1.7 -2.74,-3.95 -4.1,-6.46 -4.47,-8.21 -6.45,-16.67 -5.35,-22.73 0.73,-4.45 3.09,-7.57 7.04,-9.19 3.89,-1.6 7.93,-0.75 11.5,1.79 3.97,2.72 7.83,7.83 11.79,15.22 3.24,6.02 5.61,10.75 7.34,14.43 -13.1,8.39 -26.2,16.79 -39.29,25.19 z m 31.15,-30.13 c -0.5,-1.43 -1.75,-4.01 -3.54,-7.35 -4.5,-8.41 -9.81,-13.09 -15.51,-10.52 -5.92,2.64 -6.35,10.7 -0.95,20.72 1.49,2.75 2.88,4.92 4.2,6.49 5.27,-3.12 10.53,-6.23 15.8,-9.34 z"
   id="path63"
   inkscape:connector-curvature="0"
   style="fill:#ffffff" />
	</g>
</g>
</svg>